<?xml version="1.0" standalone="no"?>
<!DOCTYPE svg PUBLIC "-//W3C//DTD SVG 20010904//EN"
 "http://www.w3.org/TR/2001/REC-SVG-20010904/DTD/svg10.dtd">
<svg version="1.0" xmlns="http://www.w3.org/2000/svg"
 width="500.000000pt" height="500.000000pt" viewBox="0 0 500.000000 500.000000"
 preserveAspectRatio="xMidYMid meet">

<g transform="translate(0.000000,500.000000) scale(0.100000,-0.100000)"
fill="#000000" stroke="none">
<path d="M0 2500 l0 -2500 2500 0 2500 0 0 2500 0 2500 -2500 0 -2500 0 0
-2500z m2440 1685 c0 -13 12 -56 26 -97 14 -40 28 -81 31 -90 5 -15 -1 -18
-41 -18 -26 0 -45 4 -42 9 10 15 -6 71 -20 71 -9 0 -12 -13 -11 -42 l2 -43
-41 -3 -42 -3 13 56 c8 31 17 85 20 120 l7 64 42 3 c52 4 56 2 56 -27z m304
11 c57 -24 82 -118 51 -192 l-15 -36 -69 4 c-39 2 -72 6 -75 8 -2 3 2 50 9
105 8 55 15 106 15 113 0 16 43 15 84 -2z m-492 -104 c9 -53 20 -104 23 -113
5 -12 -2 -18 -26 -23 -18 -3 -33 -5 -35 -3 -1 1 -10 45 -19 97 -9 52 -19 105
-22 118 -5 19 -1 22 29 22 l33 0 17 -98z m-133 42 c27 -34 27 -68 0 -95 -21
-21 -50 -22 -91 -4 -11 4 -18 3 -18 -3 0 -6 21 -14 48 -17 67 -9 94 -19 106
-38 12 -19 3 -31 -31 -42 -19 -5 -25 -1 -33 20 -6 16 -24 32 -46 41 -48 20
-57 10 -11 -12 20 -10 39 -24 42 -33 7 -19 -20 -41 -51 -41 -17 0 -23 7 -28
38 -3 21 -16 71 -29 110 l-24 72 46 14 c70 22 97 20 120 -10z m891 1 c17 -18
23 -37 23 -67 0 -133 -128 -198 -178 -91 -14 30 -15 42 -5 81 23 95 106 134
160 77z m-1132 -85 c12 -22 43 -65 68 -96 25 -31 44 -57 42 -59 -2 -3 -19 -11
-38 -19 -34 -14 -35 -14 -47 15 -12 28 -38 47 -50 36 -3 -3 4 -18 16 -33 11
-15 21 -31 21 -35 0 -8 -71 -42 -75 -37 -1 2 -10 46 -19 98 -8 52 -18 104 -22
116 -4 17 2 24 33 36 21 9 40 16 43 17 3 0 15 -17 28 -39z m1386 3 c26 -12 33
-20 26 -28 -27 -32 -52 -175 -32 -175 13 0 32 47 32 79 0 35 19 91 31 91 4 0
24 -8 43 -17 l36 -17 -48 -50 c-27 -28 -61 -70 -76 -93 -25 -37 -30 -41 -53
-32 -60 23 -62 25 -48 66 7 21 19 67 25 103 20 105 14 97 64 73z m-1584 -84
c0 -32 -27 -49 -75 -49 -31 0 -39 -14 -24 -41 10 -19 13 -20 20 -6 5 8 24 19
42 22 17 4 37 11 43 16 17 14 26 -18 13 -43 -9 -17 -17 -19 -50 -14 -48 8 -52
-8 -6 -30 41 -20 84 -6 93 31 9 36 24 21 24 -25 0 -30 -6 -43 -26 -59 -41 -33
-80 -27 -124 17 -67 67 -66 152 2 184 20 10 39 22 43 28 11 18 25 0 25 -31z
m1807 -68 c-9 -9 -37 -53 -64 -98 l-50 -82 -24 16 c-13 9 -26 18 -27 19 -2 1
17 34 42 73 25 39 52 84 61 101 l16 31 30 -22 c27 -19 29 -23 16 -38z m-1979
-54 c23 -18 14 -64 -19 -91 -17 -14 -35 -26 -41 -26 -6 0 -9 -3 -5 -6 3 -3 26
6 51 21 50 29 79 27 97 -6 5 -11 7 -28 4 -38 -6 -20 -87 -91 -102 -90 -4 0
-39 41 -76 90 l-68 90 27 22 c65 53 97 61 132 34z m2117 -17 c16 -16 35 -30
43 -30 28 0 4 -25 -39 -40 -35 -13 -43 -20 -41 -37 4 -30 -24 -37 -50 -11
l-21 21 22 18 c12 10 30 16 41 14 25 -5 25 2 0 43 -24 40 -41 41 -63 3 -37
-63 -9 -152 43 -138 32 8 24 -19 -10 -33 -35 -15 -84 0 -100 31 -27 50 5 134
64 170 45 27 77 24 111 -11z m163 -143 l62 -63 -36 -34 c-35 -33 -36 -34 -30
-10 20 79 22 78 -35 25 -29 -27 -65 -63 -80 -80 l-28 -30 -24 23 -25 23 82 79
c44 43 78 81 75 85 -4 3 -24 -1 -44 -10 -21 -8 -40 -13 -43 -10 -6 5 47 65 58
65 3 0 34 -28 68 -63z m-2437 14 c33 -33 36 -56 13 -89 -15 -21 -14 -22 11
-12 64 24 108 -2 68 -41 -19 -19 -21 -19 -50 -3 -25 15 -36 16 -64 7 l-34 -11
48 -1 c58 -1 70 -21 36 -57 l-23 -25 -83 83 -83 82 38 39 c34 35 63 55 85 56
5 1 22 -12 38 -28z m1404 5 c359 -72 681 -320 849 -654 141 -281 166 -634 66
-934 -140 -418 -484 -721 -924 -814 -98 -20 -378 -20 -476 1 -434 91 -782 399
-919 813 -82 247 -82 530 -1 774 102 305 330 567 620 713 82 42 235 91 320
104 41 6 86 13 100 15 47 9 295 -4 365 -18z m-1468 -240 c21 -7 38 -17 38 -22
0 -18 -46 -68 -53 -58 -13 20 -54 36 -64 26 -7 -7 0 -16 21 -26 37 -19 38 -32
8 -69 l-23 -28 -31 44 c-17 24 -52 66 -77 94 l-46 50 28 35 27 35 67 -33 c36
-19 83 -40 105 -48z m2650 48 c36 -37 27 -86 -26 -136 -50 -47 -102 -59 -139
-31 -42 31 -50 67 -27 111 43 79 140 108 192 56z m148 -236 c10 -39 -28 -78
-75 -78 -45 0 -52 8 -62 70 -5 33 -6 26 -3 -25 4 -53 1 -76 -11 -93 -20 -29
-26 -28 -46 6 -16 26 -15 28 8 49 18 16 24 31 23 60 l-1 38 -9 -42 c-12 -50
-36 -63 -61 -33 -25 31 -22 46 10 59 15 7 59 31 97 55 l70 43 27 -43 c15 -24
30 -53 33 -66z m-3019 57 c9 -14 14 -34 11 -46 -5 -19 -4 -20 12 -5 21 19 62
21 79 4 19 -19 14 -58 -14 -107 -15 -25 -28 -48 -30 -49 -1 -2 -41 19 -89 47
-47 28 -90 51 -95 51 -29 0 -10 56 38 113 23 26 68 22 88 -8z m-186 -222 c-28
-20 -59 -88 -60 -129 0 -17 5 -45 11 -63 l11 -31 158 0 158 0 10 43 c6 23 8
57 5 76 -4 24 -2 32 6 27 14 -9 15 -101 1 -126 -8 -15 -6 -21 10 -30 26 -14
26 -46 0 -60 -19 -10 -20 -21 -20 -403 0 -381 1 -393 20 -405 27 -16 25 -50
-2 -63 -13 -5 -41 -21 -63 -34 -22 -14 -48 -25 -57 -25 -10 0 -22 -8 -27 -19
-15 -28 -49 -33 -69 -10 -9 10 -32 24 -52 30 -39 13 -130 76 -130 90 0 5 9 17
20 26 19 17 20 30 20 408 0 378 -1 391 -20 408 -24 20 -25 31 -4 52 14 13 14
23 6 57 -8 29 -8 57 -1 88 10 49 64 124 81 114 5 -3 0 -13 -12 -21z m3329 -92
c7 -32 7 -60 -1 -89 -8 -34 -8 -44 6 -57 21 -21 20 -32 -4 -52 -19 -17 -20
-30 -20 -410 0 -246 4 -393 10 -393 5 0 14 -10 21 -22 10 -19 7 -25 -27 -54
-22 -18 -59 -40 -84 -49 -25 -8 -53 -24 -63 -35 -22 -26 -33 -25 -60 3 -12 13
-34 27 -48 30 -14 4 -41 17 -60 30 -19 13 -42 26 -51 30 -24 9 -23 44 2 59 19
12 20 24 20 405 0 382 -1 393 -20 403 -26 14 -26 46 0 60 16 9 18 15 10 36
-14 35 -13 111 1 120 8 5 10 -3 7 -26 -3 -18 -1 -52 4 -76 l10 -44 158 0 158
0 11 31 c22 64 6 135 -42 183 -14 14 -22 28 -18 31 13 14 70 -68 80 -114z
m-3265 67 c-4 -13 -8 -47 -8 -76 -1 -34 -5 -52 -13 -52 -7 0 -22 -9 -33 -20
-11 -11 -22 -20 -25 -20 -9 0 -5 89 6 117 13 35 48 73 67 73 11 0 12 -6 6 -22z
m3200 -43 c15 -30 23 -125 11 -125 -3 0 -14 9 -25 20 -11 11 -26 20 -34 20
-10 0 -12 11 -9 44 3 24 0 53 -7 66 -10 18 -9 24 1 31 17 10 43 -12 63 -56z
m-2957 -1392 c143 -218 311 -380 520 -503 85 -49 88 -75 4 -30 -133 71 -334
244 -447 384 -62 77 -164 231 -164 248 0 24 23 -3 87 -99z m2733 99 c0 -12
-79 -138 -130 -207 -63 -86 -252 -271 -345 -336 -114 -81 -183 -120 -191 -108
-7 12 -12 8 59 48 201 114 420 332 551 549 33 55 56 77 56 54z m-2020 -667
c31 -16 37 -33 21 -63 -5 -9 -12 -25 -15 -34 -6 -20 -34 -23 -69 -7 l-24 11
21 54 c11 30 25 54 29 54 4 0 21 -7 37 -15z m1286 -22 c5 -19 2 -30 -11 -39
-11 -8 -16 -21 -12 -33 3 -12 -1 -22 -9 -25 -10 -4 -22 11 -38 47 -21 47 -22
53 -8 65 9 6 28 12 44 12 22 0 29 -6 34 -27z m-1151 -31 c6 -4 10 -33 11 -64
0 -50 -2 -58 -18 -58 -10 0 -18 6 -18 14 0 18 -31 30 -41 15 -4 -7 -12 -8 -22
-3 -13 8 -10 16 20 57 34 46 48 54 68 39z m1023 -5 c22 -26 25 -67 7 -87 -37
-41 -105 -12 -105 44 0 45 71 76 98 43z m-881 -39 c16 -13 17 -44 2 -53 -6 -4
-7 -19 -4 -36 5 -23 4 -28 -9 -23 -8 3 -19 18 -24 32 -9 27 -9 27 -16 5 -4
-13 -14 -23 -22 -23 -17 0 -17 5 -2 70 11 48 13 51 37 45 14 -4 32 -11 38 -17z
m732 0 c4 -13 11 -40 15 -60 5 -30 4 -38 -8 -38 -8 0 -18 9 -21 20 -10 32 -35
25 -35 -10 0 -47 -26 -37 -39 14 -6 25 -11 52 -11 60 0 24 27 19 33 -5 7 -26
32 -20 32 7 0 16 12 33 23 34 1 0 6 -10 11 -22z m-585 -28 c5 -5 5 -17 1 -27
-4 -10 -7 -28 -6 -40 3 -27 -21 -41 -61 -35 -30 5 -30 5 -24 50 3 25 6 51 6
60 0 11 8 13 38 7 20 -3 41 -10 46 -15z m440 -4 c-3 -8 -13 -12 -25 -9 -10 3
-19 0 -19 -6 0 -6 6 -11 14 -11 16 0 46 -26 46 -40 0 -5 -7 -16 -16 -24 -20
-21 -64 -21 -64 -1 0 8 9 15 20 15 26 0 26 16 0 23 -23 6 -35 30 -26 52 3 9
18 15 40 15 26 0 34 -4 30 -14z m-314 -11 c0 -9 -9 -15 -22 -15 -21 -1 -21 -2
-5 -11 23 -14 22 -25 -5 -34 l-23 -8 23 -4 c37 -7 27 -33 -13 -33 -34 0 -35 1
-35 38 0 67 9 82 46 82 24 0 34 -5 34 -15z m121 -1 c10 -12 10 -20 1 -35 -10
-16 -9 -24 4 -44 16 -24 15 -25 -4 -25 -12 0 -23 9 -27 20 -8 24 -27 27 -23 3
2 -10 -4 -19 -14 -21 -16 -3 -18 5 -18 57 l0 61 34 0 c18 0 39 -7 47 -16z"/>
<path d="M2350 4138 c0 -43 12 -68 31 -68 23 0 24 10 5 55 -17 40 -36 46 -36
13z"/>
<path d="M2726 4182 c-2 -4 -10 -47 -17 -95 -9 -62 -9 -91 -2 -98 19 -19 36
30 41 112 3 47 0 79 -6 83 -6 3 -13 3 -16 -2z"/>
<path d="M2023 4095 c-33 -14 -41 -29 -23 -40 17 -11 120 24 120 40 0 19 -53
19 -97 0z"/>
<path d="M2929 4134 c-18 -22 -26 -171 -10 -187 8 -8 16 -7 29 6 23 24 31 167
9 185 -11 10 -17 9 -28 -4z"/>
<path d="M1800 4000 c0 -26 42 -72 57 -62 9 6 7 16 -10 40 -27 39 -47 48 -47
22z"/>
<path d="M1430 3790 c-20 -20 -28 -60 -12 -60 12 0 52 44 52 58 0 21 -19 23
-40 2z"/>
<path d="M1463 3714 c-28 -12 -10 -25 30 -22 23 2 42 8 42 13 0 11 -52 17 -72
9z"/>
<path d="M1290 3664 c-39 -35 -53 -74 -27 -74 16 0 87 71 87 87 0 26 -21 22
-60 -13z"/>
<path d="M1285 3580 c-7 -12 12 -12 40 0 18 8 17 9 -7 9 -15 1 -30 -3 -33 -9z"/>
<path d="M2420 3421 c0 -24 40 -89 71 -115 18 -15 76 -49 129 -76 71 -35 109
-62 139 -96 35 -40 40 -43 31 -20 -6 16 -9 31 -6 33 8 9 49 -61 61 -105 l13
-47 1 42 c1 23 -3 53 -9 68 -14 37 4 22 24 -19 9 -19 16 -52 16 -74 0 -38 1
-40 43 -50 23 -6 51 -18 62 -27 19 -14 17 -14 -25 -7 -25 4 -75 7 -112 7 -40
0 -60 3 -50 8 9 4 -1 5 -23 1 -41 -5 -120 -40 -165 -71 -19 -13 -17 -8 9 19
31 34 88 68 135 83 15 4 17 12 12 45 -10 62 -36 106 -80 138 -56 39 -76 48
-46 20 45 -41 57 -64 14 -27 -23 20 -84 57 -137 82 -52 25 -107 58 -121 74
-31 34 -34 21 -5 -26 21 -34 53 -65 93 -88 34 -20 9 -15 -32 6 -55 28 -93 74
-108 128 l-13 48 0 -55 c0 -33 7 -71 18 -96 23 -52 93 -111 151 -129 41 -12
42 -14 14 -14 -43 -1 -118 26 -149 55 -32 29 -35 30 -35 4 0 -42 34 -102 73
-131 47 -34 34 -38 -26 -8 -74 37 -105 76 -133 164 l-13 40 -1 -45 c-1 -35 -3
-40 -10 -25 -23 53 -3 143 43 195 l22 24 -35 -26 c-68 -50 -107 -162 -80 -232
13 -35 4 -33 -15 4 -8 16 -15 53 -16 82 0 39 -3 48 -9 33 -8 -19 -9 -19 -9 -1
-2 36 40 105 87 147 53 47 39 47 -56 1 -84 -41 -141 -119 -157 -217 l-6 -40
24 50 25 50 -6 -62 c-3 -46 0 -75 13 -110 20 -51 82 -125 130 -154 49 -31 4
-22 -64 12 -94 47 -140 120 -142 226 -1 48 -3 53 -9 28 -19 -77 -5 -155 37
-205 28 -34 99 -73 150 -85 l33 -7 -21 -40 c-24 -47 -20 -61 6 -21 25 38 45
52 74 53 22 0 20 3 -16 29 -42 30 -103 99 -103 115 0 6 17 -6 38 -26 48 -47
121 -78 180 -77 38 1 42 2 22 8 -47 15 -118 52 -136 72 -15 17 -10 16 39 -6
103 -48 220 -55 311 -19 16 6 15 1 -9 -32 -19 -25 -22 -33 -10 -23 39 32 45
30 20 -7 -38 -56 -35 -60 53 -56 47 2 95 -2 122 -11 45 -14 44 -14 -43 -9
l-89 5 26 -51 c14 -28 26 -54 26 -57 0 -7 -242 1 -354 11 -54 4 -77 2 -108
-12 -32 -14 -45 -15 -75 -6 -45 14 -69 2 -75 -36 -8 -55 10 -92 52 -111 22
-10 38 -21 35 -24 -3 -4 0 -3 6 2 7 6 14 33 17 61 6 60 20 61 38 1 23 -80 76
-113 138 -87 41 17 67 54 75 104 l6 37 133 3 132 3 1 -33 c1 -18 1 -35 1 -38
1 -3 -2 -21 -5 -40 l-6 -35 14 30 14 30 1 -43 c0 -54 -22 -107 -51 -122 -12
-7 -44 -10 -75 -8 -45 4 -51 3 -36 -8 9 -8 12 -14 6 -14 -6 0 -23 9 -37 20
l-25 20 5 -20 c3 -11 9 -23 14 -26 17 -10 10 -63 -10 -75 -17 -11 -16 -14 12
-39 26 -23 31 -35 33 -81 2 -49 1 -51 -8 -24 -12 34 -57 87 -68 80 -5 -3 -21
2 -36 10 -16 8 -37 15 -47 15 -15 0 -16 -3 -6 -21 6 -12 9 -40 6 -63 l-5 -41
14 30 c11 25 13 26 14 9 0 -24 -32 -69 -61 -85 -20 -10 -20 -9 1 31 18 34 19
46 10 80 -11 42 -35 68 -25 28 3 -12 2 -28 -2 -34 -11 -16 -49 -34 -70 -34
-11 1 -4 7 17 17 29 13 32 17 15 21 -11 2 -39 13 -62 23 -52 24 -58 24 -83 -1
-22 -22 -25 -19 -10 9 6 13 5 24 -5 37 -20 27 -18 51 6 75 25 25 51 21 105
-16 41 -28 92 -40 124 -30 18 6 20 9 9 16 -11 6 -8 9 8 9 29 0 70 38 78 74 l6
29 -31 -32 c-23 -22 -40 -31 -63 -30 -30 1 -31 1 -7 9 l25 7 -30 8 c-16 4 -40
14 -52 21 -16 10 -23 11 -23 3 0 -7 -8 -5 -20 6 -11 10 -20 26 -20 35 0 17
-18 40 -32 40 -4 0 -5 -7 -2 -15 6 -14 -19 -14 -88 0 -14 2 -16 -4 -12 -37 5
-38 4 -40 -36 -55 -47 -19 -47 -32 -2 -52 26 -12 32 -20 32 -46 0 -51 -28
-130 -56 -159 -32 -31 -18 -35 20 -5 14 11 26 18 26 14 0 -15 -24 -52 -48 -73
l-27 -24 26 6 c27 6 27 6 26 -53 0 -72 25 -118 89 -161 l43 -31 -24 50 c-19
37 -25 63 -24 107 l1 59 8 -52 c11 -73 41 -117 102 -147 70 -35 83 -23 83 75
0 69 0 70 14 37 8 -20 11 -51 8 -81 l-6 -47 32 16 c79 41 138 110 171 200 17
44 22 18 7 -34 -9 -29 -8 -31 8 -22 52 27 140 163 141 215 0 11 4 31 8 45 6
20 8 14 12 -30 l6 -55 13 30 c22 49 25 145 6 226 -19 85 -22 220 -6 264 10 28
10 29 -4 11 -23 -30 -18 1 5 34 23 33 79 55 112 45 67 -21 76 -85 28 -196 -30
-68 -53 -159 -43 -169 3 -3 8 0 10 6 7 20 38 77 87 161 59 100 69 155 38 208
-12 19 -17 35 -12 35 16 0 50 -53 50 -79 l1 -26 18 22 c11 13 24 45 31 73 10
42 10 58 -4 99 -11 36 -13 57 -6 82 17 59 12 179 -10 227 -10 23 -22 42 -25
42 -3 0 -2 -8 3 -17 16 -30 23 -97 12 -113 -8 -12 -10 -11 -10 8 0 27 -23 73
-57 119 -27 34 -132 93 -167 93 -21 -1 -21 -1 -1 -12 31 -17 85 -70 106 -103
20 -32 26 -18 8 18 -12 22 -12 22 10 3 31 -28 54 -116 45 -169 l-7 -42 -9 31
c-13 49 -69 126 -113 155 -22 15 -80 44 -129 65 -49 21 -109 53 -133 71 -26
20 -40 26 -34 16 17 -29 34 -48 61 -66 45 -31 -3 -18 -75 21 -53 29 -79 51
-107 92 -21 29 -38 48 -38 41z m-323 -1077 c-3 -3 -12 -4 -19 -1 -8 3 -5 6 6
6 11 1 17 -2 13 -5z"/>
<path d="M1488 2523 c7 -3 16 -2 19 1 4 3 -2 6 -13 5 -11 0 -14 -3 -6 -6z"/>
<path d="M1817 2523 c-10 -9 -9 -41 2 -47 4 -3 6 6 3 21 -4 23 -2 25 17 20 11
-3 19 -1 15 4 -6 11 -28 12 -37 2z"/>
<path d="M3275 2520 c-3 -6 1 -7 9 -4 18 7 21 14 7 14 -6 0 -13 -4 -16 -10z"/>
<path d="M1726 2495 c-9 -26 -7 -32 5 -12 6 10 9 21 6 23 -2 3 -7 -2 -11 -11z"/>
<path d="M3297 2491 c-4 -17 -3 -21 5 -13 5 5 8 16 6 23 -3 8 -7 3 -11 -10z"/>
<path d="M1585 2490 c3 -5 8 -10 11 -10 2 0 4 5 4 10 0 6 -5 10 -11 10 -5 0
-7 -4 -4 -10z"/>
<path d="M3438 2483 c6 -2 18 -2 25 0 6 3 1 5 -13 5 -14 0 -19 -2 -12 -5z"/>
<path d="M1658 2473 c7 -3 16 -2 19 1 4 3 -2 6 -13 5 -11 0 -14 -3 -6 -6z"/>
<path d="M2520 2216 c0 -2 8 -10 18 -17 15 -13 16 -12 3 4 -13 16 -21 21 -21
13z"/>
<path d="M2897 2132 c-10 -10 -17 -27 -17 -38 0 -40 -82 -102 -232 -175 -94
-45 -133 -78 -149 -126 -6 -18 -18 -37 -27 -43 -15 -8 -15 -9 3 -9 14 0 27 15
45 52 24 49 30 54 126 102 181 91 254 149 254 201 0 37 44 30 48 -7 2 -21 -11
-39 -75 -99 -53 -50 -66 -67 -42 -52 50 30 55 28 17 -9 -37 -34 -25 -30 42 14
l45 30 -50 -52 c-27 -29 -41 -49 -31 -45 15 6 17 4 11 -7 -11 -16 35 11 75 45
23 20 23 20 10 1 -8 -11 -30 -38 -49 -60 -36 -39 -21 -33 33 14 40 36 23 8
-43 -69 -43 -49 -49 -59 -25 -42 17 12 57 49 88 82 31 34 56 55 56 48 0 -25
-66 -164 -111 -233 -59 -92 -61 -95 -55 -95 15 0 136 179 173 256 46 97 50
114 31 114 -28 0 -38 19 -54 95 -22 109 -59 149 -97 107z m3 -226 c0 -2 -8
-10 -17 -17 -16 -13 -17 -12 -4 4 13 16 21 21 21 13z"/>
<path d="M2640 1839 c-43 -19 -100 -65 -100 -80 0 -4 24 6 53 22 69 38 94 37
37 -2 -25 -17 -36 -28 -25 -26 44 11 100 17 80 8 -99 -42 -187 -71 -216 -71
-32 1 -155 37 -134 40 9 2 -90 29 -107 30 -12 0 -10 -79 3 -143 10 -48 15 -57
33 -57 31 1 98 33 137 68 52 46 92 45 153 -2 74 -56 162 -98 174 -83 28 34 45
120 39 200 -3 45 -8 90 -12 100 -10 23 -58 22 -115 -4z"/>
<path d="M1110 3451 c0 -14 41 -41 62 -41 30 0 30 19 -1 35 -34 17 -61 20 -61
6z"/>
<path d="M3828 3460 c-60 -61 -75 -100 -38 -100 39 0 130 101 130 145 0 31
-35 14 -92 -45z"/>
<path d="M3970 3318 c0 -43 57 -114 76 -95 7 7 -23 77 -43 99 -22 24 -33 23
-33 -4z"/>
<path d="M993 3273 c-12 -33 -7 -53 12 -53 15 0 25 22 25 56 0 33 -26 31 -37
-3z"/>
<path d="M1044 3238 l-19 -23 23 19 c21 18 27 26 19 26 -2 0 -12 -10 -23 -22z"/>
<path d="M1068 3227 c-16 -13 -28 -25 -28 -28 0 -11 55 3 72 19 18 15 15 32
-5 32 -7 -1 -24 -11 -39 -23z"/>
<path d="M815 2860 c-16 -25 14 -30 191 -30 177 0 184 1 184 20 0 19 -7 20
-184 20 -113 0 -187 -4 -191 -10z"/>
<path d="M995 2725 l-140 -62 -3 -67 c-2 -36 -1 -66 1 -66 2 0 69 28 148 63
l144 64 3 66 c2 37 -1 67 -5 66 -4 0 -71 -29 -148 -64z"/>
<path d="M1000 2416 l-145 -63 -3 -61 -3 -61 113 50 c62 28 130 58 151 66 37
15 37 15 37 74 0 32 -1 59 -2 59 -2 0 -68 -29 -148 -64z"/>
<path d="M988 2117 c-76 -33 -138 -67 -138 -74 0 -10 24 -13 98 -13 79 0 107
4 149 22 l53 23 0 53 c0 35 -4 52 -12 51 -7 0 -75 -28 -150 -62z"/>
<path d="M814 1989 c-15 -25 20 -29 192 -27 161 3 179 5 182 21 3 16 -11 17
-182 17 -122 0 -187 -4 -192 -11z"/>
<path d="M855 1941 c3 -5 25 -17 50 -26 61 -24 168 -18 215 13 l35 22 -153 0
c-91 0 -151 -4 -147 -9z"/>
<path d="M983 1875 c2 -5 10 -10 17 -10 7 0 15 5 17 10 2 6 -6 11 -17 11 -11
0 -19 -5 -17 -11z"/>
<path d="M3830 2850 c0 -20 4 -20 188 -18 158 3 187 5 187 18 0 13 -29 15
-187 18 -184 2 -188 2 -188 -18z"/>
<path d="M3872 2723 l3 -66 144 -64 c79 -35 146 -63 148 -63 2 0 3 30 1 66
l-3 66 -144 64 c-79 35 -145 64 -148 64 -2 0 -3 -30 -1 -67z"/>
<path d="M3870 2422 l0 -58 150 -66 151 -66 -3 60 -3 61 -125 54 c-69 30 -135
59 -147 63 -22 9 -23 8 -23 -48z"/>
<path d="M3870 2128 l0 -53 53 -23 c42 -18 70 -22 150 -22 73 0 97 3 97 13 0
11 -267 137 -291 137 -5 0 -9 -24 -9 -52z"/>
<path d="M3832 1983 c3 -16 19 -18 188 -18 158 0 185 2 185 15 0 13 -29 15
-188 18 -176 2 -188 1 -185 -15z"/>
<path d="M3900 1928 c47 -31 154 -37 215 -13 25 9 47 21 50 26 4 5 -56 9 -147
9 l-153 0 35 -22z"/>
<path d="M4003 1877 c4 -14 26 -16 30 -3 1 5 -6 10 -16 12 -10 1 -16 -3 -14
-9z"/>
<path d="M1870 1050 c0 -5 5 -10 10 -10 6 0 10 5 10 10 0 6 -4 10 -10 10 -5 0
-10 -4 -10 -10z"/>
<path d="M1855 1010 c-3 -5 1 -10 9 -10 9 0 16 5 16 10 0 6 -4 10 -9 10 -6 0
-13 -4 -16 -10z"/>
<path d="M3135 1050 c3 -5 10 -10 16 -10 5 0 9 5 9 10 0 6 -7 10 -16 10 -8 0
-12 -4 -9 -10z"/>
<path d="M1999 989 c-8 -17 -8 -20 2 -17 7 2 13 12 15 21 3 23 -3 21 -17 -4z"/>
<path d="M2995 1001 c-9 -15 13 -51 31 -51 11 0 14 8 12 27 -3 28 -30 43 -43
24z"/>
<path d="M2140 964 c0 -8 5 -12 10 -9 6 4 8 11 5 16 -9 14 -15 11 -15 -7z"/>
<path d="M2270 940 c0 -5 5 -10 10 -10 6 0 10 5 10 10 0 6 -4 10 -10 10 -5 0
-10 -4 -10 -10z"/>
<path d="M2266 895 c-3 -9 0 -15 9 -15 16 0 20 16 6 24 -5 3 -11 -1 -15 -9z"/>
<path d="M2520 920 c0 -5 5 -10 10 -10 6 0 10 5 10 10 0 6 -4 10 -10 10 -5 0
-10 -4 -10 -10z"/>
</g>
</svg>
